<svg width="24" height="24" viewBox="0 0 24 24" fill="none" xmlns="http://www.w3.org/2000/svg">
    <path
        d="M17.6005 5.3093L11.9505 2.2693C11.3505 1.9493 10.6405 1.9493 10.0405 2.2693L4.40047 5.3093C3.99047 5.5393 3.73047 5.9793 3.73047 6.4593C3.73047 6.9493 3.98047 7.3893 4.40047 7.6093L10.0505 10.6493C10.3505 10.8093 10.6805 10.8893 11.0005 10.8893C11.3205 10.8893 11.6605 10.8093 11.9505 10.6493L17.6005 7.6093C18.0105 7.3893 18.2705 6.9493 18.2705 6.4593C18.2705 5.9793 18.0105 5.5393 17.6005 5.3093Z"
        fill="currentColor" />
    <path
        d="M9.12 11.7086L3.87 9.08863C3.46 8.87863 3 8.90863 2.61 9.13863C2.23 9.37863 2 9.78863 2 10.2386V15.1986C2 16.0586 2.48 16.8286 3.25 17.2186L8.5 19.8386C8.68 19.9286 8.88 19.9786 9.08 19.9786C9.31 19.9786 9.55 19.9086 9.76 19.7886C10.14 19.5486 10.37 19.1386 10.37 18.6886V13.7286C10.36 12.8686 9.88 12.0986 9.12 11.7086Z"
        fill="currentColor" />
    <path
        d="M20.0006 10.2386V12.6986C19.5206 12.5586 19.0106 12.4986 18.5006 12.4986C17.1406 12.4986 15.8106 12.9686 14.7606 13.8086C13.3206 14.9386 12.5006 16.6486 12.5006 18.4986C12.5006 18.9886 12.5606 19.4786 12.6906 19.9486C12.5406 19.9286 12.3906 19.8686 12.2506 19.7786C11.8706 19.5486 11.6406 19.1386 11.6406 18.6886V13.7286C11.6406 12.8686 12.1206 12.0986 12.8806 11.7086L18.1306 9.08863C18.5406 8.87863 19.0006 8.90863 19.3906 9.13863C19.7706 9.37863 20.0006 9.78863 20.0006 10.2386Z"
        fill="currentColor" />
    <path
        d="M21.98 15.65C21.16 14.64 19.91 14 18.5 14C17.44 14 16.46 14.37 15.69 14.99C14.65 15.81 14 17.08 14 18.5C14 19.91 14.64 21.16 15.65 21.98C16.42 22.62 17.42 23 18.5 23C19.64 23 20.67 22.57 21.47 21.88C22.4 21.05 23 19.85 23 18.5C23 17.42 22.62 16.42 21.98 15.65ZM19.53 18.78C19.53 19.04 19.39 19.29 19.17 19.42L17.76 20.26C17.64 20.33 17.51 20.37 17.37 20.37C17.12 20.37 16.87 20.24 16.73 20.01C16.52 19.65 16.63 19.19 16.99 18.98L18.03 18.36V17.1C18.03 16.69 18.37 16.35 18.78 16.35C19.19 16.35 19.53 16.69 19.53 17.1V18.78Z"
        fill="currentColor" />
</svg>