<svg width="24" height="25" viewBox="0 0 24 25" fill="none" xmlns="http://www.w3.org/2000/svg">
    <path
        d="M3 3.5H5L5.4 5.5M7 13.5H17L21 5.5H5.4M7 13.5L5.4 5.5M7 13.5L4.70711 15.7929C4.07714 16.4229 4.52331 17.5 5.41421 17.5H17M17 17.5C15.8954 17.5 15 18.3954 15 19.5C15 20.6046 15.8954 21.5 17 21.5C18.1046 21.5 19 20.6046 19 19.5C19 18.3954 18.1046 17.5 17 17.5ZM9 19.5C9 20.6046 8.10457 21.5 7 21.5C5.89543 21.5 5 20.6046 5 19.5C5 18.3954 5.89543 17.5 7 17.5C8.10457 17.5 9 18.3954 9 19.5Z"
        stroke="currentColor" stroke-width="2" stroke-linecap="round" stroke-linejoin="round" />
</svg>