<svg width="24" height="24" viewBox="0 0 24 24" fill="currentColor"
    xmlns="http://www.w3.org/2000/svg">
    <path
        d="M15 22.75H9C3.57 22.75 1.25 20.43 1.25 15V9C1.25 3.57 3.57 1.25 9 1.25H15C20.43 1.25 22.75 3.57 22.75 9V15C22.75 20.43 20.43 22.75 15 22.75ZM9 2.75C4.39 2.75 2.75 4.39 2.75 9V15C2.75 19.61 4.39 21.25 9 21.25H15C19.61 21.25 21.25 19.61 21.25 15V9C21.25 4.39 19.61 2.75 15 2.75H9Z"
        fill="currentColor" />
    <path
        d="M15.75 8.5H8.25C7.84 8.5 7.5 8.16 7.5 7.75C7.5 7.34 7.84 7 8.25 7H15.75C16.16 7 16.5 7.34 16.5 7.75C16.5 8.16 16.16 8.5 15.75 8.5Z"
        fill="currentColor" />
    <path
        d="M15.75 16.5H8.25C7.84 16.5 7.5 16.16 7.5 15.75C7.5 15.34 7.84 15 8.25 15H15.75C16.16 15 16.5 15.34 16.5 15.75C16.5 16.16 16.16 16.5 15.75 16.5Z"
        fill="currentColor" />
    <path
        d="M15.75 12.5H8.25C7.84 12.5 7.5 12.16 7.5 11.75C7.5 11.34 7.84 11 8.25 11H15.75C16.16 11 16.5 11.34 16.5 11.75C16.5 12.16 16.16 12.5 15.75 12.5Z"
        fill="currentColor" />
</svg>