<svg width="25" height="25" viewBox="0 0 25 25" fill="none" xmlns="http://www.w3.org/2000/svg">
<path d="M3.73584 11.7769H5.68091C6.78548 11.7769 7.68091 12.6723 7.68091 13.7769V14.7769C7.68091 15.8814 8.57634 16.7769 9.68091 16.7769C10.7855 16.7769 11.6809 17.6723 11.6809 18.7769V21.7219M8.68091 4.71238V6.27686C8.68091 7.65757 9.8002 8.77686 11.1809 8.77686H11.6809C12.7855 8.77686 13.6809 9.67229 13.6809 10.7769C13.6809 11.8814 14.5763 12.7769 15.6809 12.7769C16.7855 12.7769 17.6809 11.8814 17.6809 10.7769C17.6809 9.67229 18.5763 8.77686 19.6809 8.77686L20.7454 8.77685M15.6809 21.2647V18.7769C15.6809 17.6723 16.5763 16.7769 17.6809 16.7769H20.7454M21.6809 12.7769C21.6809 17.7474 17.6515 21.7769 12.6809 21.7769C7.71035 21.7769 3.68091 17.7474 3.68091 12.7769C3.68091 7.80629 7.71035 3.77686 12.6809 3.77686C17.6515 3.77686 21.6809 7.80629 21.6809 12.7769Z" stroke="#6D28D9" stroke-width="1.5" stroke-linecap="round" stroke-linejoin="round"/>
</svg>
