<svg width="24" height="24" viewBox="0 0 24 24" fill="none" xmlns="http://www.w3.org/2000/svg">
<path fill-rule="evenodd" clip-rule="evenodd" d="M20 19.4453C20 20.0779 19.4872 20.5907 18.8546 20.5907H5.14537C4.5128 20.5907 4 20.0779 4 19.4453V4.55552C4 3.92295 4.5128 3.41016 5.14537 3.41016H16.599C16.8977 3.41019 17.1846 3.52691 17.3985 3.73544L19.6549 5.93684C19.8757 6.15251 20.0002 6.44822 20 6.75692V19.4453Z" stroke="#9CA3AF" stroke-width="1.5" stroke-linecap="round" stroke-linejoin="round"/>
<path fill-rule="evenodd" clip-rule="evenodd" d="M9.15415 10.2818C10.103 10.2818 10.8722 9.51261 10.8722 8.56375C10.8722 7.6149 10.103 6.8457 9.15415 6.8457C8.20529 6.8457 7.4361 7.6149 7.4361 8.56375C7.4361 9.51261 8.20529 10.2818 9.15415 10.2818Z" stroke="#9CA3AF" stroke-width="1.5" stroke-linecap="round" stroke-linejoin="round"/>
<path d="M17.2022 16.7351L14.2052 12.2392C14.0638 12.0265 13.8264 11.8975 13.5711 11.8946C13.3157 11.8917 13.0754 12.0153 12.9293 12.2247L10.8745 15.1606L9.60083 14.139C9.43179 14.0035 9.21362 13.9453 8.99957 13.9785C8.78552 14.0118 8.59529 14.1335 8.47532 14.3138L6.8634 16.7351" stroke="#9CA3AF" stroke-width="1.5" stroke-linecap="round" stroke-linejoin="round"/>
</svg>
