<svg width="24" height="24" viewBox="0 0 24 24" fill="none" xmlns="http://www.w3.org/2000/svg">
<path d="M3.60002 3.59961C2.93728 3.59961 2.40002 4.13687 2.40002 4.79961C2.40002 5.46235 2.93728 5.99961 3.60002 5.99961H16.8C17.4628 5.99961 18 5.46235 18 4.79961C18 4.13687 17.4628 3.59961 16.8 3.59961H3.60002Z" fill="#9CA3AF"/>
<path d="M3.60002 8.39961C2.93728 8.39961 2.40002 8.93687 2.40002 9.59961C2.40002 10.2624 2.93728 10.7996 3.60002 10.7996H12C12.6628 10.7996 13.2 10.2624 13.2 9.59961C13.2 8.93687 12.6628 8.39961 12 8.39961H3.60002Z" fill="#9CA3AF"/>
<path d="M3.60002 13.1996C2.93728 13.1996 2.40002 13.7369 2.40002 14.3996C2.40002 15.0624 2.93728 15.5996 3.60002 15.5996H8.40002C9.06277 15.5996 9.60002 15.0624 9.60002 14.3996C9.60002 13.7369 9.06277 13.1996 8.40002 13.1996H3.60002Z" fill="#9CA3AF"/>
<path d="M18 9.59961C18 8.93687 17.4628 8.39961 16.8 8.39961C16.1373 8.39961 15.6 8.93687 15.6 9.59961L15.6 16.3026L14.0486 14.7511C13.5799 14.2825 12.8201 14.2824 12.3515 14.7511C11.8829 15.2197 11.8829 15.9795 12.3515 16.4481L15.9515 20.0481C16.1765 20.2732 16.4818 20.3996 16.8 20.3996C17.1183 20.3996 17.4235 20.2732 17.6486 20.0481L21.2486 16.4481C21.7172 15.9795 21.7172 15.2197 21.2486 14.7511C20.7799 14.2825 20.0201 14.2825 19.5515 14.7511L18 16.3026L18 9.59961Z" fill="#9CA3AF"/>
</svg>
