<svg width="19" height="20" viewBox="0 0 19 20" fill="none" xmlns="http://www.w3.org/2000/svg">
<path d="M4.75982 2.07328C4.5701 1.12332 5.70683 0.485565 6.41869 1.14258L10.0299 4.47561C10.3483 4.76944 10.8196 4.82486 11.1975 4.61288L15.4833 2.20834C16.3281 1.73435 17.286 2.61836 16.8811 3.49841L14.8271 7.96288C14.646 8.35645 14.739 8.82185 15.0573 9.11568L18.6686 12.4487C19.3805 13.1057 18.8357 14.2898 17.8736 14.1767L12.9929 13.6029C12.5627 13.5523 12.1488 13.7845 11.9677 14.1781L9.91373 18.6425C9.50885 19.5226 8.21435 19.3704 8.02463 18.4204L7.06217 13.6013C6.97732 13.1765 6.62857 12.8546 6.19831 12.804L1.31764 12.2302C0.355543 12.1171 0.100271 10.8389 0.945112 10.3649L5.23095 7.96036C5.60877 7.74839 5.80713 7.31723 5.72228 6.8924L4.75982 2.07328Z" fill="#FCD34D"/>
</svg>
