<svg width="20" height="20" viewBox="0 0 20 20" fill="currentColor"
    xmlns="http://www.w3.org/2000/svg">
    <path
        d="M3.33398 4.16634C3.33398 3.7061 3.70708 3.33301 4.16732 3.33301H15.834C16.2942 3.33301 16.6673 3.7061 16.6673 4.16634V5.83301C16.6673 6.29325 16.2942 6.66634 15.834 6.66634H4.16732C3.70708 6.66634 3.33398 6.29325 3.33398 5.83301V4.16634Z"
        stroke="currentColor" stroke-width="2" stroke-linecap="round" stroke-linejoin="round" />
    <path
        d="M3.33398 10.833C3.33398 10.3728 3.70708 9.99967 4.16732 9.99967H9.16732C9.62755 9.99967 10.0007 10.3728 10.0007 10.833V15.833C10.0007 16.2932 9.62755 16.6663 9.16732 16.6663H4.16732C3.70708 16.6663 3.33398 16.2932 3.33398 15.833V10.833Z"
        stroke="currentColor" stroke-width="2" stroke-linecap="round" stroke-linejoin="round" />
    <path
        d="M13.334 10.833C13.334 10.3728 13.7071 9.99967 14.1673 9.99967H15.834C16.2942 9.99967 16.6673 10.3728 16.6673 10.833V15.833C16.6673 16.2932 16.2942 16.6663 15.834 16.6663H14.1673C13.7071 16.6663 13.334 16.2932 13.334 15.833V10.833Z"
        stroke="currentColor" stroke-width="2" stroke-linecap="round" stroke-linejoin="round" />
</svg>